<svg width="37" height="45" viewBox="0 0 37 45" fill="none" xmlns="http://www.w3.org/2000/svg">
<path d="M36.8545 18.4416C36.8556 20.0055 36.6548 21.563 36.2571 23.0754C35.8684 24.5589 35.2993 25.9892 34.5624 27.3341C34.1502 28.0812 33.6846 28.7976 33.1692 29.4776C33.1491 29.5124 33.1344 29.5318 33.1297 29.5445L33.125 29.5492C32.7236 30.0785 32.2947 30.5865 31.8403 31.0711C31.1957 31.7565 30.4987 32.3907 29.7558 32.968C29.7558 32.968 24.4099 36.8067 17.9977 36.8067L16.9454 36.8114L12.4449 36.8409V24.4345H18.4425C19.2323 24.4409 20.0148 24.2826 20.74 23.9696C21.455 23.6659 22.1054 23.2285 22.6563 22.6809C23.2058 22.1281 23.6422 21.4736 23.9411 20.7538C24.2556 20.024 24.4138 19.2363 24.4052 18.4416C24.4079 18.0386 24.3697 17.6365 24.2914 17.2413C24.2888 17.2367 24.2872 17.2317 24.2867 17.2265C24.2121 16.8462 24.0962 16.4751 23.9411 16.12C23.3337 14.6712 22.1825 13.5183 20.7346 12.9089C20.0114 12.5956 19.2306 12.4374 18.4425 12.4447H12.4449C12.444 9.14453 11.1327 5.97982 8.79921 3.64621C6.46575 1.31261 3.30111 0.00112065 0.000976562 5.52965e-05H18.4425C20.097 -0.00403333 21.7442 0.218632 23.3382 0.661838C24.8748 1.09052 26.3493 1.71666 27.7249 2.52461C28.2192 2.81598 28.6981 3.13214 29.163 3.46839L29.2018 3.4925C31.2837 5.00344 33.0298 6.9295 34.33 9.14916C35.137 10.527 35.7631 12.0032 36.1928 13.5412C36.6357 15.1368 36.8583 16.7856 36.8545 18.4416Z" fill="url(#paint0_linear)"/>
<path d="M34.8583 45H21.5396L19.4403 40.1438L17.9955 36.8048C24.4077 36.8048 29.7536 32.966 29.7536 32.966L31.2848 36.583L31.5527 37.2107C31.5527 37.2154 31.5581 37.2154 31.5581 37.22L34.8583 45Z" fill="url(#paint1_linear)"/>
<path d="M12.4449 12.4446V44.9979H0.000976562V0C3.30111 0.00106536 6.46575 1.31255 8.79921 3.64616C11.1327 5.97976 12.444 9.14447 12.4449 12.4446Z" fill="url(#paint2_linear)"/>
<g style="mix-blend-mode:multiply" opacity="0.16">
<g style="mix-blend-mode:multiply" opacity="0.16">
<path d="M12.4449 12.4446C12.444 9.14447 11.1327 5.97976 8.79921 3.64616C6.46575 1.31255 3.30111 0.00106536 0.000976562 0H11.2694C13.7839 2.35174 16.1999 6.20522 16.7974 12.4446H12.4449Z" fill="black"/>
</g>
</g>
<g style="mix-blend-mode:multiply" opacity="0.16">
<g style="mix-blend-mode:multiply" opacity="0.16">
<path d="M16.9452 24.4344V36.8094L12.4447 36.8388V24.4344H16.9452Z" fill="black"/>
</g>
</g>
<g style="mix-blend-mode:multiply" opacity="0.16">
<g style="mix-blend-mode:multiply" opacity="0.16">
<path d="M31.2868 36.5824C27.6012 38.5139 23.5802 39.7228 19.4403 40.1438L17.9955 36.8048C24.4077 36.8048 29.7536 32.966 29.7536 32.966L31.2868 36.5824Z" fill="black"/>
</g>
</g>
<g style="mix-blend-mode:multiply" opacity="0.25">
<g style="mix-blend-mode:multiply" opacity="0.25">
<path d="M36.8543 18.4415C36.8553 20.0054 36.6545 21.5629 36.2568 23.0753C35.8682 24.5589 35.299 25.9891 34.5621 27.3341C34.1499 28.0811 33.6843 28.7975 33.1689 29.4775C33.258 29.3341 33.475 28.9885 33.7664 28.46C34.2988 27.497 34.7563 26.4944 35.1348 25.4612C35.6638 24.0151 36.027 22.5136 36.2173 20.9855C36.3162 20.1295 36.3623 19.2683 36.3553 18.4067C36.3466 17.5167 36.274 16.6284 36.1382 15.7488C36.0094 14.8691 35.8144 14.0003 35.5548 13.1499C35.304 12.3253 35.0023 11.517 34.6512 10.7299C34.3165 9.99272 33.9404 9.27507 33.5246 8.5804C33.1227 7.9233 32.7047 7.31577 32.2941 6.77724C31.6265 5.90292 30.8914 5.08212 30.0958 4.32234C29.5184 3.76371 29.1627 3.46765 29.1627 3.46765L29.2016 3.49176C31.2835 5.0027 33.0296 6.92875 34.3297 9.14841C35.1368 10.5263 35.7629 12.0024 36.1925 13.5404C36.6354 15.1363 36.8581 16.7853 36.8543 18.4415Z" fill="black"/>
</g>
</g>
<g style="mix-blend-mode:multiply" opacity="0.25">
<g style="mix-blend-mode:multiply" opacity="0.25">
<path d="M34.8581 45H24.9233C25.7532 44.8767 26.5785 44.8024 27.4084 44.7321C28.2383 44.6617 29.0635 44.6135 29.8867 44.574C30.7099 44.5345 31.5465 44.515 32.3718 44.4996L34.0905 44.4849C33.9224 44.0703 33.7556 43.655 33.5969 43.235C33.335 42.5786 33.0878 41.9215 32.8507 41.2544C32.6136 40.5872 32.3818 39.9207 32.1587 39.2449C31.9357 38.569 31.7341 37.8965 31.5559 37.2147L34.8581 45Z" fill="black"/>
</g>
</g>
<g style="mix-blend-mode:screen" opacity="0.7">
<g style="mix-blend-mode:screen" opacity="0.7">
<path d="M0.51941 22.5026C0.514721 23.9093 0.509368 25.3159 0.49999 26.6971C0.490613 28.0782 0.469837 29.4433 0.455101 30.7629C0.42094 33.4006 0.36602 35.8609 0.297028 37.9702C0.173781 42.19 0.000976562 44.9999 0.000976562 44.9999V0C0.000976562 0 0.173781 2.81325 0.297028 7.02977C0.36401 9.13971 0.42094 11.5993 0.455101 14.2377C0.469837 15.5566 0.49999 16.9204 0.49999 18.3035C0.49999 19.6867 0.513381 21.0947 0.51941 22.5026Z" fill="white"/>
</g>
</g>
<g style="mix-blend-mode:multiply" opacity="0.25">
<g style="mix-blend-mode:multiply" opacity="0.25">
<path d="M24.6321 19.4101C24.6134 19.7794 24.5539 20.1456 24.4546 20.5019C24.4003 20.6895 24.3307 20.8971 24.2664 21.0746C24.1916 21.2743 24.1043 21.4692 24.0051 21.658C23.8002 22.0588 23.5482 22.4337 23.2543 22.7746C22.9501 23.125 22.6087 23.4412 22.2361 23.7177C21.8552 23.9842 21.4481 24.2112 21.0211 24.3949C20.6078 24.57 20.1748 24.6943 19.7317 24.7653C19.3201 24.8319 18.9022 24.8501 18.4865 24.8196C18.1114 24.8001 17.7658 24.7653 17.4396 24.7305C16.1502 24.6072 15.2901 24.4344 15.2901 24.4344H18.4423C19.2321 24.4409 20.0146 24.2826 20.7398 23.9696C21.4547 23.6659 22.1052 23.2285 22.6561 22.6808C23.2056 22.1281 23.642 21.4735 23.9408 20.7538C24.2554 20.0239 24.4135 19.2362 24.405 18.4415C24.4077 18.0386 24.3695 17.6365 24.2912 17.2412C24.3702 17.4215 24.4332 17.6085 24.4794 17.7998C24.6093 18.3261 24.6608 18.8687 24.6321 19.4101Z" fill="black"/>
</g>
</g>
<g style="mix-blend-mode:screen" opacity="0.7">
<g style="mix-blend-mode:screen" opacity="0.7">
<path d="M12.4446 12.4449V44.9982C12.4446 44.9982 12.4004 44.1837 12.3508 42.7604C12.3013 41.337 12.2169 39.2974 12.1633 36.8572C12.0963 34.4164 12.0447 31.5657 12.0099 28.5133C11.9951 26.9868 11.9804 25.4107 11.9657 23.8051C11.9509 22.1995 11.9556 20.5746 11.9509 18.9489C11.9462 17.3232 11.9603 15.6882 11.9704 14.088C11.9657 13.2923 11.9905 12.4804 11.9657 11.7316C11.9308 10.9864 11.8249 10.2462 11.6495 9.52116C11.3175 8.13805 10.7491 6.82265 9.9696 5.63284C8.65515 3.63967 6.79921 2.06302 4.61976 1.0881C3.84591 0.74081 3.03768 0.47589 2.2084 0.297708C1.67165 0.182159 1.12894 0.0962904 0.582741 0.040496C0.202283 0.0157127 0 0.000976562 0 0.000976562C3.30013 0.00204192 6.46477 1.31353 8.79822 3.64714C11.1317 5.98074 12.4431 9.14546 12.4439 12.4456L12.4446 12.4449Z" fill="white"/>
</g>
</g>
<defs>
<linearGradient id="paint0_linear" x1="36.3018" y1="18.4204" x2="4.97622" y2="18.4204" gradientUnits="userSpaceOnUse">
<stop stop-color="#C33764"/>
<stop offset="1" stop-color="#1D2671"/>
</linearGradient>
<linearGradient id="paint1_linear" x1="24.6226" y1="35.7458" x2="26.3029" y2="45.1635" gradientUnits="userSpaceOnUse">
<stop stop-color="#08ADF8"/>
<stop offset="1" stop-color="#4700FC"/>
</linearGradient>
<linearGradient id="paint2_linear" x1="6.22295" y1="1.43993" x2="6.22295" y2="45.0879" gradientUnits="userSpaceOnUse">
<stop stop-color="#FC7300"/>
<stop offset="1" stop-color="#F8007A"/>
</linearGradient>
</defs>
</svg>
